<svg xmlns:dc="http://purl.org/dc/elements/1.1/" xmlns:cc="http://creativecommons.org/ns#" xmlns:rdf="http://www.w3.org/1999/02/22-rdf-syntax-ns#" xmlns:svg="http://www.w3.org/2000/svg" xmlns="http://www.w3.org/2000/svg" xmlns:sodipodi="http://sodipodi.sourceforge.net/DTD/sodipodi-0.dtd" xmlns:inkscape="http://www.inkscape.org/namespaces/inkscape" viewBox="0 0 8.4666665 10.583333625" version="1.1" x="0px" y="0px"><g><path style="color:#000000;font-style:normal;font-variant:normal;font-weight:normal;font-stretch:normal;font-size:medium;line-height:normal;font-family:sans-serif;font-variant-ligatures:normal;font-variant-position:normal;font-variant-caps:normal;font-variant-numeric:normal;font-variant-alternates:normal;font-feature-settings:normal;text-indent:0;text-align:start;text-decoration:none;text-decoration-line:none;text-decoration-style:solid;text-decoration-color:#000000;letter-spacing:normal;word-spacing:normal;text-transform:none;writing-mode:lr-tb;direction:ltr;text-orientation:mixed;dominant-baseline:auto;baseline-shift:baseline;text-anchor:start;white-space:normal;shape-padding:0;clip-rule:nonzero;display:inline;overflow:visible;visibility:visible;opacity:1;isolation:auto;mix-blend-mode:normal;color-interpolation:sRGB;color-interpolation-filters:linearRGB;solid-color:#000000;solid-opacity:1;vector-effect:none;fill:#000000;fill-opacity:1;fill-rule:nonzero;stroke:none;stroke-width:1.99999988;stroke-linecap:round;stroke-linejoin:round;stroke-miterlimit:4;stroke-dasharray:none;stroke-dashoffset:0;stroke-opacity:1;paint-order:normal;color-rendering:auto;image-rendering:auto;shape-rendering:auto;text-rendering:auto;enable-background:accumulate" d="M 18.023438 -0.001953125 A 1.0001 1.0001 0 0 0 17.929688 0 A 1.0001 1.0001 0 0 0 17.732422 0.03515625 A 1.0001 1.0001 0 0 0 17.658203 0.05859375 L 12.660156 1.875 A 1.0001 1.0001 0 0 0 12.322266 2.0839844 A 1.0001 1.0001 0 0 0 12.251953 2.1542969 A 1.0001 1.0001 0 0 0 12.136719 2.3183594 A 1.0001 1.0001 0 0 0 12.091797 2.40625 A 1.0001 1.0001 0 0 0 12.054688 2.5 A 1.0001 1.0001 0 0 0 12.029297 2.5957031 A 1.0001 1.0001 0 0 0 12.011719 2.6953125 A 1.0001 1.0001 0 0 0 12.007812 2.8945312 A 1.0001 1.0001 0 0 0 12.021484 2.9941406 A 1.0001 1.0001 0 0 0 12.294922 3.5175781 A 1.0001 1.0001 0 0 0 12.367188 3.5859375 A 1.0001 1.0001 0 0 0 12.371094 3.5878906 L 15.759766 6.3261719 L 10.460938 7.8320312 L 7.8535156 3.484375 A 1.0001 1.0001 0 0 0 7.6640625 3.2539062 A 1.0001 1.0001 0 0 0 7.4140625 3.0898438 A 1.0001 1.0001 0 0 0 7.1269531 3.0058594 A 1.0001 1.0001 0 0 0 6.7539062 3.0273438 L 2.7617188 4.03125 A 1.0001 1.0001 0 0 0 2.5742188 4.0976562 A 1.0001 1.0001 0 0 0 2.5722656 4.0976562 A 1.0001 1.0001 0 0 0 2.4023438 4.2011719 A 1.0001 1.0001 0 0 0 2.2558594 4.3359375 A 1.0001 1.0001 0 0 0 2.0917969 4.5859375 A 1.0001 1.0001 0 0 0 2.0917969 4.5878906 A 1.0001 1.0001 0 0 0 2.0097656 4.8730469 A 1.0001 1.0001 0 0 0 2.0097656 4.875 A 1.0001 1.0001 0 0 0 2.0332031 5.2480469 A 1.0001 1.0001 0 0 0 2.0390625 5.2695312 A 1.0001 1.0001 0 0 0 2.0390625 5.2714844 A 1.0001 1.0001 0 0 0 2.0527344 5.3144531 L 5.0488281 14.314453 A 1.0001 1.0001 0 0 0 5.1308594 14.496094 A 1.0001 1.0001 0 0 0 5.2460938 14.658203 A 1.0001 1.0001 0 0 0 5.28125 14.695312 A 1.0001 1.0001 0 0 0 5.3144531 14.730469 A 1.0001 1.0001 0 0 0 5.3164062 14.730469 A 1.0001 1.0001 0 0 0 5.390625 14.794922 A 1.0001 1.0001 0 0 0 5.3925781 14.794922 A 1.0001 1.0001 0 0 0 5.5605469 14.900391 A 1.0001 1.0001 0 0 0 5.5625 14.900391 A 1.0001 1.0001 0 0 0 5.6523438 14.939453 A 1.0001 1.0001 0 0 0 5.6542969 14.939453 A 1.0001 1.0001 0 0 0 5.7480469 14.96875 A 1.0001 1.0001 0 0 0 5.75 14.96875 A 1.0001 1.0001 0 0 0 5.9453125 15 A 1.0001 1.0001 0 0 0 5.9472656 15 A 1.0001 1.0001 0 0 0 6.1777344 14.984375 L 28.162109 10.984375 C 28.162109 10.984375 29.031385 10.847394 29.933594 10.416016 C 30.384698 10.200326 30.862094 9.9110662 31.269531 9.4628906 C 31.47325 9.238803 31.655337 8.9661046 31.787109 8.65625 C 31.787348 8.6556897 31.786871 8.6548574 31.787109 8.6542969 C 31.852953 8.4994484 31.906709 8.336997 31.943359 8.1660156 C 31.980042 7.9949751 32 7.8164138 32 7.6328125 L 32 7.3671875 C 32 6.4663733 31.724552 5.6274893 31.251953 4.9296875 C 31.251438 4.9289268 31.250516 4.9284947 31.25 4.9277344 C 31.092522 4.6950743 30.9148 4.4793755 30.716797 4.28125 C 29.924548 3.4890017 28.831944 2.9960938 27.630859 2.9960938 A 1.0001 1.0001 0 0 0 27.357422 3.0410156 L 23.142578 4.2363281 L 18.662109 0.25195312 A 1.0001 1.0001 0 0 0 18.441406 0.10351562 A 1.0001 1.0001 0 0 0 18.412109 0.087890625 A 1.0001 1.0001 0 0 0 18.410156 0.087890625 A 1.0001 1.0001 0 0 0 18.125 0.005859375 A 1.0001 1.0001 0 0 0 18.123047 0.005859375 A 1.0001 1.0001 0 0 0 18.023438 -0.001953125 z M 2.4316406 12.779297 C 1.0743404 14.578505 0.23473338 16.731321 0.04296875 19.001953 L 7.0566406 19.001953 C 7.0944806 18.272524 7.1758476 17.541392 7.3144531 16.808594 L 6.5351562 16.951172 L 6.5351562 16.949219 C 5.1273883 17.205907 3.601569 16.300035 3.1523438 14.941406 L 2.4316406 12.779297 z M 22.412109 14.0625 L 16.271484 15.179688 C 16.646006 16.45753 16.85449 17.732555 16.921875 19.001953 L 23.951172 19.001953 C 23.801936 17.251252 23.271229 15.568429 22.412109 14.0625 z M 14.226562 15.550781 L 9.5019531 16.412109 C 9.2854889 17.281284 9.1734457 18.143109 9.1210938 19.001953 L 14.875 19.001953 C 14.80279 17.860474 14.590263 16.711709 14.226562 15.550781 z M 0.05078125 21.001953 C 0.56040617 27.118473 5.6719055 31.947534 11.90625 31.996094 A 1.0001 1.0001 0 0 1 11.183594 31.578125 C 8.7707073 28.167407 7.3321966 24.616412 7.0761719 21.001953 L 0.05078125 21.001953 z M 9.1328125 21.001953 C 9.3555019 23.681262 10.336641 26.330874 11.996094 29.003906 C 13.655156 26.331892 14.63453 23.681641 14.851562 21.001953 L 9.1328125 21.001953 z M 16.90625 21.001953 C 16.656439 24.616167 15.229129 28.167638 12.816406 31.578125 A 1.0001 1.0001 0 0 1 12.089844 31.996094 C 18.325975 31.949544 23.439486 27.119761 23.949219 21.001953 L 16.90625 21.001953 z " transform="scale(0.26458333)"/></g><text x="0" y="23.4666669" fill="#000000" font-size="5px" font-weight="bold" font-family="'Helvetica Neue', Helvetica, Arial-Unicode, Arial, Sans-serif">Created by Ardiansyah</text><text x="0" y="28.4666669" fill="#000000" font-size="5px" font-weight="bold" font-family="'Helvetica Neue', Helvetica, Arial-Unicode, Arial, Sans-serif">from the Noun Project</text></svg>